<svg xmlns="http://www.w3.org/2000/svg" width="22" height="24" viewBox="0 0 22 24">
  <g id="Group_207" data-name="Group 207" transform="translate(0 0)">
    <g id="Group_180" data-name="Group 180" transform="translate(0 0)">
      <g id="Rectangle_75" data-name="Rectangle 75" transform="translate(5 0)" fill="#fff" stroke="#000" stroke-width="1">
        <rect width="12" height="7" rx="3.5" stroke="none"/>
        <rect x="0.5" y="0.5" width="11" height="6" rx="3" fill="none"/>
      </g>
      <g id="Rectangle_74" data-name="Rectangle 74" transform="translate(0 3)" fill="#f2f2f2" stroke="#000" stroke-width="1">
        <rect width="22" height="21" rx="5" stroke="none"/>
        <rect x="0.5" y="0.5" width="21" height="20" rx="4.5" fill="none"/>
      </g>
    </g>
    <g id="Group_181" data-name="Group 181" transform="translate(2.157 10.899)">
      <path id="Path_1" data-name="Path 1" d="M37.285,19.22,34.78,21.725h1.807l1.6-1.6Z" transform="translate(-28.433 -15.365)" fill="#f15a22"/>
      <path id="Path_2" data-name="Path 2" d="M8.819,3.4,3.14,9.079H4.949L9.723,4.3Z" transform="translate(-3.14 -2.718)" fill="#f15a22"/>
      <path id="Path_3" data-name="Path 3" d="M23.044,11.3,18.95,15.394h1.807L23.947,12.2Z" transform="translate(-15.779 -9.033)" fill="#f15a22"/>
      <path id="Path_4" data-name="Path 4" d="M46.152,0H44.342L40.485,3.857l-.68-.68L42.98,0H41.173L38.9,2.273l-.684-.684L39.8,0H38l-.686.684L36.631,0l0,0H34.82l0,0,.9.9.682.68.9.9L38,3.177l.9.9.68.682.9.9.7.694h1.807l-1.6-1.6Z" transform="translate(-28.465 0)" fill="#f15a22"/>
      <path id="Path_5" data-name="Path 5" d="M50.58,28.041h1.809l.016-.016-.9-.9Z" transform="translate(-41.064 -21.68)" fill="#f15a22"/>
    </g>
  </g>
</svg>
