<svg id="Group_181" data-name="Group 181" xmlns="http://www.w3.org/2000/svg" width="17.686" height="6.361" viewBox="0 0 17.686 6.361">
  <path id="Path_1" data-name="Path 1" d="M37.285,19.22,34.78,21.725h1.807l1.6-1.6Z" transform="translate(-28.433 -15.365)" fill="#f15a22"/>
  <path id="Path_2" data-name="Path 2" d="M8.819,3.4,3.14,9.079H4.949L9.723,4.3Z" transform="translate(-3.14 -2.718)" fill="#f15a22"/>
  <path id="Path_3" data-name="Path 3" d="M23.044,11.3,18.95,15.394h1.807L23.947,12.2Z" transform="translate(-15.779 -9.033)" fill="#f15a22"/>
  <path id="Path_4" data-name="Path 4" d="M46.152,0H44.342L40.485,3.857l-.68-.68L42.98,0H41.173L38.9,2.273l-.684-.684L39.8,0H38l-.686.684L36.631,0l0,0H34.82l0,0,.9.9.682.68.9.9L38,3.177l.9.9.68.682.9.9.7.694h1.807l-1.6-1.6Z" transform="translate(-28.465 0)" fill="#f15a22"/>
  <path id="Path_5" data-name="Path 5" d="M50.58,28.041h1.809l.016-.016-.9-.9Z" transform="translate(-41.064 -21.68)" fill="#f15a22"/>
</svg>
