<svg id="Group_287" data-name="Group 287" xmlns="http://www.w3.org/2000/svg" xmlns:xlink="http://www.w3.org/1999/xlink" width="22.735" height="25" viewBox="0 0 22.735 25">
  <defs>
    <clipPath id="clip-path">
      <rect id="Rectangle_310" data-name="Rectangle 310" width="22.735" height="25" fill="#fff"/>
    </clipPath>
  </defs>
  <g id="Group_286" data-name="Group 286" clip-path="url(#clip-path)">
    <path id="Path_79" data-name="Path 79" d="M17.587,6.049c1.728,1.639,3.42,3.334,5.128,5,.016,1.113.027,2.233.015,3.344,0,.136-.072.272-.074.423-.024,2.608-.018,5.2-.077,7.806l-1.322.22.056-11.023L14.986,5.743,8.519,13.568,8.5,24.795a4.144,4.144,0,0,1-1.531.178L.2,20.8a1.026,1.026,0,0,1-.111-.45C-.073,18.38.039,15.807.022,13.768.01,12.283.012,10.794.056,9.311L7.665.027c.119-.075.3.027.418.074,2.283.93,4.56,2.479,6.86,3.44.86.858,1.763,1.672,2.644,2.507" transform="translate(-0.001 0)" fill="#fff"/>
    <path id="Path_80" data-name="Path 80" d="M190.932,227.926l-.079,7.558-3.494.57.079-7.559Z" transform="translate(-174.23 -211.954)" fill="#fff"/>
  </g>
</svg>
