<svg id="Group_196" data-name="Group 196" xmlns="http://www.w3.org/2000/svg" width="20.022" height="20.025" viewBox="0 0 20.022 20.025">
  <path id="Path_59" data-name="Path 59" d="M19.121,1.869a.668.668,0,0,0-.945,0l-2.9,2.924-.514-.257a.668.668,0,0,0-.748.11V2a.668.668,0,0,0-.668-.668V.668A.668.668,0,0,0,12.683,0H6.675a.668.668,0,0,0-.668.668v.668A.668.668,0,0,0,5.34,2V4.839A3.034,3.034,0,0,0,3,3.671a3.084,3.084,0,0,0-3,3,3.084,3.084,0,0,0,3,3A3.034,3.034,0,0,0,5.34,8.511v4.783L1.869,16.754a.668.668,0,0,0,0,.935l2.153,2.129a.668.668,0,0,0,.945,0l.374-.374a.668.668,0,0,0,.668.581h.668a.668.668,0,0,0,.668-.668V17.449l1.335-1.335v3.244a.668.668,0,0,0,.668.668h.668a.668.668,0,0,0,.668-.668V14.111l1.335-1.335v6.582a.668.668,0,0,0,.668.668h.668a.668.668,0,0,0,.668-.668V10.774L17.065,7.73a.667.667,0,0,0,.123-.771l-.257-.514,2.9-2.9a.668.668,0,0,0,0-.941ZM13.35,19.358h-.668V12.109l.668-.668ZM9.345,9.3V2h.668V8.634ZM10.68,2.336h1.335v4.3L10.68,7.97ZM13.35,2V5.3l-.668.668V2Zm-.668-.668a.668.668,0,0,0-.574.334H10.587a.668.668,0,0,0-.574-.334V.668h2.67ZM6.675.668h2.67v.668a.668.668,0,0,0-.574.334H7.249a.668.668,0,0,0-.574-.334ZM6.675,2v9.959l-.668.668V2ZM1.151,8.057a2.386,2.386,0,0,1-.274-.451L3.935,4.549a2.386,2.386,0,0,1,.451.274Zm3.7-2.763a2.474,2.474,0,0,1,.274.447L2.069,8.8a2.473,2.473,0,0,1-.447-.274ZM3.191,4.339.668,6.862A2.376,2.376,0,0,1,3.191,4.339ZM2.814,9.011,5.34,6.485A2.376,2.376,0,0,1,2.814,9.011ZM7.343,2.336H8.678V9.963L7.343,11.3ZM6.675,19.358H6.008v-.574l.668-.668Zm3.338,0H9.345V15.446l.668-.668Zm-5.52,0c-.02-.033.284.28-2.153-2.129,7.419-7.4-10.967,10.937,12.129-12.1l.668.334,1.1,1.1.334.668C4.042,19.808,4.526,19.358,4.492,19.358ZM16.527,5.907,15.817,5.2l2.83-2.86.711.738Z" fill="#f15a22"/>
</svg>
