<svg id="Group_197" data-name="Group 197" xmlns="http://www.w3.org/2000/svg" width="16.48" height="16.48" viewBox="0 0 16.48 16.48">
  <path id="Path_60" data-name="Path 60" d="M8.24,0a8.24,8.24,0,1,0,8.24,8.24A8.24,8.24,0,0,0,8.24,0Zm.294,2.376L11.4,1.231a7.708,7.708,0,0,1,.941.507l.008,0a7.735,7.735,0,0,1,.848.622l.023.02q.18.154.351.318l.044.042q.179.175.346.36l.027.032c.1.11.192.224.284.339l.065.082c.1.128.2.259.286.394l-.571,2.428-2.81.937L8.535,5.151ZM2.144,3.559l.065-.082q.135-.172.28-.336l.03-.035q.166-.186.345-.36c.014-.013.027-.027.042-.04q.169-.163.348-.316l.027-.023a7.764,7.764,0,0,1,.84-.618l.011-.007a7.716,7.716,0,0,1,.936-.507l2.878,1.14V5.15L5.239,7.315,2.43,6.38,1.859,3.952q.137-.2.285-.393Zm-.331,8.9q-.121-.185-.232-.376l-.018-.031q-.11-.191-.208-.388l0,0A7.652,7.652,0,0,1,.992,10.8v0c-.049-.137-.093-.278-.135-.419L.842,10.33q-.057-.2-.1-.4c0-.013-.006-.026-.009-.039a7.645,7.645,0,0,1-.145-.93L2.263,6.945l2.79.93.81,3.239-1.331,1.77Zm8.256,3.254c-.137.034-.278.063-.419.09l-.06.011c-.12.021-.241.04-.363.055l-.1.012c-.113.013-.227.023-.341.031l-.107.008c-.146.009-.293.014-.442.014s-.271,0-.405-.011c-.016,0-.032,0-.048,0q-.179-.01-.357-.027l-.014,0a7.825,7.825,0,0,1-.775-.124L5.017,13.219l1.31-1.746h3.827l1.331,1.758Zm5.682-5.821-.009.039q-.046.2-.1.4l-.015.052q-.061.212-.135.419v0a7.627,7.627,0,0,1-.362.851l0,0q-.1.2-.208.388l-.018.031q-.109.192-.231.376l-2.71.427-1.34-1.769.809-3.238,2.79-.93L15.9,8.957a7.627,7.627,0,0,1-.145.931Zm0,0"/>
</svg>
