<svg id="Layer_1" data-name="Layer 1" xmlns="http://www.w3.org/2000/svg" width="410" height="80.533" viewBox="0 0 410 80.533">
  <path id="Path_52" data-name="Path 52" d="M0,68.1l5.712-7.329a33.089,33.089,0,0,0,24.52,11.1c13.9,0,18.323-7.491,18.323-13.473-.054-9.323-9.431-11.91-19.724-14.712-12.664-3.233-26.353-6.736-26.353-22.1C2.479,8.763,13.9.033,29.424.033A36.484,36.484,0,0,1,57.07,10.811l-6.036,7.221A29.855,29.855,0,0,0,28.508,8.655c-9.377,0-16.167,5.066-16.167,12.395s9.215,10.185,19.077,12.826c12.718,3.4,27.215,7.383,27.215,23.712,0,11.317-7.706,22.9-28.724,22.9A38.424,38.424,0,0,1,0,68.1Z" transform="translate(0 0.008)" fill="#fff"/>
  <path id="Path_53" data-name="Path 53" d="M13.57,78.092V.22h9.646V78.092Z" transform="translate(59.56 1.006)" fill="#fff"/>
  <path id="Path_54" data-name="Path 54" d="M78.853,78.092,54.01,44.949l-24.9,33.143H17.31L47.974,38.159,19.358.436h11.8L54.01,31.369,77.021.22h11.8L60.315,37.943,90.547,77.984Z" transform="translate(75.975 1.006)" fill="#fff"/>
  <path id="Path_55" data-name="Path 55" d="M32.25,67.8l9.431-11.533a27.969,27.969,0,0,0,20.64,8.515c9.215,0,14.5-5.389,14.5-11.587S71.7,41.662,62.806,41.662a22.311,22.311,0,0,0-16.167,6.305L34.675,44.949V.22h53.46v14.6H51.273V33.848A25.167,25.167,0,0,1,93.416,52.494c0,16.6-12.395,26.945-31.2,26.945A38.64,38.64,0,0,1,32.25,67.8Z" transform="translate(141.547 1.006)" fill="#fff"/>
  <path id="Path_56" data-name="Path 56" d="M45.18,68.1l5.712-7.329a33.089,33.089,0,0,0,24.52,11.1c13.9,0,18.377-7.491,18.377-13.473,0-9.323-9.485-11.91-19.778-14.712-12.449-3.233-26.353-6.736-26.353-22.1C47.659,8.763,59.084.033,74.6.033A36.484,36.484,0,0,1,102.25,10.811l-6.036,7.221A29.855,29.855,0,0,0,73.688,8.655c-9.323,0-16.167,5.066-16.167,12.395s9.161,10.185,19.023,12.826c12.718,3.4,27.215,7.383,27.215,23.712,0,11.317-7.706,22.9-28.724,22.9A38.532,38.532,0,0,1,45.18,68.1Z" transform="translate(198.298 0.008)" fill="#fff"/>
  <path id="Path_57" data-name="Path 57" d="M58.75,78.092V.22h9.7V78.092Z" transform="translate(257.857 1.006)" fill="#fff"/>
  <path id="Path_58" data-name="Path 58" d="M124.043,78.092l-24.9-33.143L74.3,78.092H62.5L92.84,38.159,64.224.436H75.973L99.146,31.369,122.157.22h11.8L105.451,37.943l30.233,40.041Z" transform="translate(274.316 1.006)" fill="#fff"/>
</svg>
