<svg xmlns="http://www.w3.org/2000/svg" width="86.773" height="31.207" viewBox="0 0 86.773 31.207">
  <g id="Group_2" data-name="Group 2" transform="translate(-91.762 -41.609)">
    <path id="Path_1" data-name="Path 1" d="M47.072,19.22,34.78,31.512h8.867l7.863-7.863Z" transform="translate(88.12 41.304)"/>
    <path id="Path_2" data-name="Path 2" d="M31,3.4,3.14,31.261h8.877L35.44,7.839Z" transform="translate(88.622 41.555)"/>
    <path id="Path_3" data-name="Path 3" d="M39.037,11.3,18.95,31.387h8.867L43.465,15.739Z" transform="translate(88.371 41.43)"/>
    <path id="Path_4" data-name="Path 4" d="M90.415,0H81.538L62.612,18.925l-3.336-3.336L74.855,0H65.988L54.838,11.15,51.482,7.794,59.276,0H50.409L47.043,3.356,43.707.02l.02-.02H34.82l.01.02,4.439,4.439,3.346,3.336,4.429,4.439L50.4,15.589l4.439,4.429,3.336,3.346L62.612,27.8l3.415,3.405h8.867l-7.844-7.844Z" transform="translate(88.12 41.609)"/>
    <path id="Path_5" data-name="Path 5" d="M50.58,31.637h8.877l.079-.079L55.1,27.12Z" transform="translate(87.87 41.179)"/>
  </g>
</svg>
