<svg id="Layer_1" data-name="Layer 1" xmlns="http://www.w3.org/2000/svg" width="600" height="117.853" viewBox="0 0 600 117.853">
  <path id="Path_52" data-name="Path 52" d="M0,99.657,8.36,88.932a48.423,48.423,0,0,0,35.883,16.246c20.347,0,26.814-10.962,26.814-19.716-.079-13.644-13.8-17.429-28.864-21.53C23.659,59.2,3.628,54.074,3.628,31.6,3.628,12.828,20.347.052,43.06.052A53.391,53.391,0,0,1,83.517,15.825L74.685,26.392A43.691,43.691,0,0,0,41.719,12.67C28,12.67,18.06,20.083,18.06,30.809s13.486,14.905,27.918,18.77C64.59,54.547,85.8,60.383,85.8,84.279,85.8,100.84,74.527,117.8,43.77,117.8A56.23,56.23,0,0,1,0,99.657Z" transform="translate(0 0.008)" fill="#fff"/>
  <path id="Path_53" data-name="Path 53" d="M13.57,114.179V.22H27.687V114.179Z" transform="translate(93.449 1.574)" fill="#fff"/>
  <path id="Path_54" data-name="Path 54" d="M107.373,114.179l-36.356-48.5-36.435,48.5H17.31L62.184,55.741,20.307.535H37.578L71.017,45.8,104.692.22h17.271L80.244,55.425l44.243,58.6Z" transform="translate(119.204 1.574)" fill="#fff"/>
  <path id="Path_55" data-name="Path 55" d="M32.25,99.116l13.8-16.877A40.931,40.931,0,0,0,76.256,94.7c13.486,0,21.215-7.886,21.215-16.956s-7.492-16.877-20.5-16.877a32.65,32.65,0,0,0-23.659,9.227L35.8,65.677V.22h78.233V21.592H60.089V49.431a36.83,36.83,0,0,1,61.672,27.287c0,24.29-18.139,39.432-45.662,39.432A56.546,56.546,0,0,1,32.25,99.116Z" transform="translate(222.088 1.574)" fill="#fff"/>
  <path id="Path_56" data-name="Path 56" d="M45.18,99.657l8.36-10.726a48.423,48.423,0,0,0,35.883,16.246c20.347,0,26.893-10.962,26.893-19.716,0-13.644-13.88-17.429-28.943-21.53C69.155,59.2,48.808,54.074,48.808,31.6,48.808,12.828,65.527.052,88.24.052A53.391,53.391,0,0,1,128.7,15.825l-8.833,10.568A43.691,43.691,0,0,0,86.9,12.67c-13.644,0-23.659,7.413-23.659,18.139s13.407,14.905,27.839,18.77c18.612,4.968,39.826,10.8,39.826,34.7,0,16.562-11.278,33.517-42.035,33.517A56.388,56.388,0,0,1,45.18,99.657Z" transform="translate(311.129 0.008)" fill="#fff"/>
  <path id="Path_57" data-name="Path 57" d="M58.75,114.179V.22h14.2V114.179Z" transform="translate(404.578 1.574)" fill="#fff"/>
  <path id="Path_58" data-name="Path 58" d="M152.563,114.179l-36.435-48.5-36.356,48.5H62.5l44.4-58.438L65.024.535H82.216L116.128,45.8,149.8.22h17.271L125.355,55.425l44.243,58.6Z" transform="translate(430.402 1.574)" fill="#fff"/>
</svg>
