<svg xmlns="http://www.w3.org/2000/svg" width="10.224" height="29.051" viewBox="0 0 10.224 29.051">
  <g id="Group_394" data-name="Group 394" transform="matrix(-0.996, -0.087, 0.087, -0.996, 8.983, 29.288)">
    <path id="Path_141" data-name="Path 141" d="M1.05,1.8Q.933,1.709.827,1.609c-.069-.067-.134-.138-.2-.21S.513,1.255.459,1.18A2.65,2.65,0,0,1,.315.95,2.456,2.456,0,0,1,0,0,3.539,3.539,0,0,1,1.864.778C1.936.836,2,.9,2.071.958s.131.122.192.186.118.13.173.2.109.133.158.2a3.235,3.235,0,0,1,.447.876,2.463,2.463,0,0,1-1-.094q-.128-.038-.257-.089t-.252-.119q-.125-.066-.248-.144c-.081-.053-.159-.112-.237-.173" transform="translate(8.249 25.977)" fill="#f15a22"/>
    <path id="Path_142" data-name="Path 142" d="M.006,1.575A1.686,1.686,0,0,1,.7,0a3.761,3.761,0,0,1,.865,1.9,2.237,2.237,0,0,1-.066.945,1.551,1.551,0,0,1-.439.71Q1,3.508.95,3.456t-.1-.109q-.1-.11-.195-.226a3.136,3.136,0,0,1-.322-.49C.284,2.547.241,2.462.2,2.374S.137,2.2.11,2.109.06,1.932.043,1.843C.034,1.8.026,1.754.02,1.71S.01,1.62.006,1.575" transform="translate(6.514 25.064)" fill="#f15a22"/>
    <path id="Path_143" data-name="Path 143" d="M1.591,0a2.365,2.365,0,0,0-.466.02A2.2,2.2,0,0,0,.9.067,2.03,2.03,0,0,0,.7.13,1.759,1.759,0,0,0,0,.585,2.436,2.436,0,0,0,.186.772q.1.087.2.166c.07.052.141.1.214.147s.151.085.228.122a2.244,2.244,0,0,0,.477.171A2.227,2.227,0,0,0,1.8,1.44a1.865,1.865,0,0,0,.879-.211A1.816,1.816,0,0,0,3.3.676,2.95,2.95,0,0,0,1.591,0" transform="translate(7.411 24.308)" fill="#f15a22"/>
    <path id="Path_144" data-name="Path 144" d="M.02,1.47A1.761,1.761,0,0,1,1.07,0,3.984,3.984,0,0,1,1.3.512a3.912,3.912,0,0,1,.164.534c.02.091.04.181.055.272s.027.182.034.274a3.615,3.615,0,0,1,0,.549,2.793,2.793,0,0,1-.089.516,2.092,2.092,0,0,1-.175.445,1.634,1.634,0,0,1-.6.641A3.237,3.237,0,0,1,.02,1.47" transform="translate(3.955 21.967)" fill="#f15a22"/>
    <path id="Path_145" data-name="Path 145" d="M1.76.083A2.107,2.107,0,0,0,0,.34,3.261,3.261,0,0,0,.324.787a2.965,2.965,0,0,0,.4.371,2.083,2.083,0,0,0,.221.151q.114.069.233.125a2.131,2.131,0,0,0,.494.165,1.964,1.964,0,0,0,.492.042,1.885,1.885,0,0,0,.456-.077,1.9,1.9,0,0,0,.755-.439A3.109,3.109,0,0,0,1.76.083" transform="translate(5.263 21.493)" fill="#f15a22"/>
    <path id="Path_146" data-name="Path 146" d="M.148,1.282a2.232,2.232,0,0,1,.241-.5A1.907,1.907,0,0,1,.717.4,1.737,1.737,0,0,1,1.541,0a4.259,4.259,0,0,1,.04,2.3,2.492,2.492,0,0,1-.472.932,1.694,1.694,0,0,1-.748.532A3.818,3.818,0,0,1,.014,2.5a3.072,3.072,0,0,1,0-.629,2.75,2.75,0,0,1,.047-.3,2.8,2.8,0,0,1,.082-.289" transform="translate(1.983 18.48)" fill="#f15a22"/>
    <path id="Path_147" data-name="Path 147" d="M1.858.268A2.75,2.75,0,0,0,1.38.087,2.313,2.313,0,0,0,.9,0,1.955,1.955,0,0,0,0,.154,2.935,2.935,0,0,0,.236.681a2.763,2.763,0,0,0,.327.465q.093.106.194.2a2.03,2.03,0,0,0,.212.178,2.5,2.5,0,0,0,.47.274,2.027,2.027,0,0,0,.979.162,2.015,2.015,0,0,0,.868-.294,3.355,3.355,0,0,0-.595-.8A3.42,3.42,0,0,0,2.3.535c-.069-.05-.143-.1-.217-.141S1.937.306,1.858.268" transform="translate(3.798 18.242)" fill="#f15a22"/>
    <path id="Path_148" data-name="Path 148" d="M.419,1.012A2.143,2.143,0,0,1,1.19.234,1.818,1.818,0,0,1,2.121,0c0,.1.011.205.012.308s0,.205-.008.308S2.112.82,2.1.921s-.027.2-.046.3a4.043,4.043,0,0,1-.383,1.144,2.7,2.7,0,0,1-.679.856,1.778,1.778,0,0,1-.88.389C.086,3.5.064,3.382.046,3.267a3.332,3.332,0,0,1-.039-.347C0,2.8,0,2.688,0,2.574a3.053,3.053,0,0,1,.022-.339A3.6,3.6,0,0,1,.16,1.589a3.055,3.055,0,0,1,.259-.577" transform="translate(0.658 14.758)" fill="#f15a22"/>
    <path id="Path_149" data-name="Path 149" d="M1.875.554A2.649,2.649,0,0,0,.956.081,2.04,2.04,0,0,0,0,.038a2.464,2.464,0,0,0,.05.3Q.083.484.127.628a2.434,2.434,0,0,0,.105.28q.06.137.13.266a2.54,2.54,0,0,0,.76.854,2.063,2.063,0,0,0,.967.37,2.1,2.1,0,0,0,.947-.119A3.388,3.388,0,0,0,1.875.554" transform="translate(3.077 14.693)" fill="#f15a22"/>
    <path id="Path_150" data-name="Path 150" d="M.864.723a2.5,2.5,0,0,1,.459-.4A1.91,1.91,0,0,1,2.816.048c-.037.212-.07.423-.125.63Q2.651.834,2.6.985c-.034.1-.076.2-.112.3a3.844,3.844,0,0,1-.274.57q-.08.137-.172.267c-.06.087-.12.171-.186.252a3.068,3.068,0,0,1-.42.428,2.4,2.4,0,0,1-.453.306A1.847,1.847,0,0,1,0,3.323,4.126,4.126,0,0,1,.04,2.591Q.065,2.41.1,2.235l.02-.087.024-.086q.025-.086.054-.17A3.948,3.948,0,0,1,.476,1.26q.04-.074.084-.144c.029-.047.063-.093.1-.138A3.07,3.07,0,0,1,.864.723" transform="translate(0 10.913)" fill="#f15a22"/>
    <path id="Path_151" data-name="Path 151" d="M1.823.923a2.92,2.92,0,0,0-.4-.387A2.805,2.805,0,0,0,.981.247,2.124,2.124,0,0,0,.015,0,2.78,2.78,0,0,0,.021.63Q.038.785.067.938a2.1,2.1,0,0,0,.075.3,3.18,3.18,0,0,0,.245.555,2.745,2.745,0,0,0,.159.249,2.4,2.4,0,0,0,.192.227,2.306,2.306,0,0,0,.433.358,2.148,2.148,0,0,0,.478.221,2.2,2.2,0,0,0,.994.076,3.934,3.934,0,0,0-.085-.532q-.031-.132-.074-.261l-.022-.065L2.443,2q-.022-.064-.046-.127A2.993,2.993,0,0,0,2.15,1.38q-.037-.06-.077-.118c-.026-.039-.051-.077-.078-.115q-.08-.114-.173-.223" transform="translate(3.111 10.996)" fill="#f15a22"/>
    <path id="Path_152" data-name="Path 152" d="M1.427.455A2.574,2.574,0,0,1,1.978.145,2.086,2.086,0,0,1,2.534.01,1.967,1.967,0,0,1,3.563.184q-.058.158-.127.31C3.39.6,3.348.7,3.3.8a4.469,4.469,0,0,1-.338.575,4.024,4.024,0,0,1-.4.525q-.11.123-.231.237c-.079.076-.157.15-.241.219a2.875,2.875,0,0,1-1.048.572A1.9,1.9,0,0,1,0,2.946c.01-.064.02-.128.033-.191s.03-.125.047-.188Q.13,2.381.193,2.2T.33,1.847c.012-.029.025-.057.038-.086l.043-.084Q.455,1.6.5,1.515A4.13,4.13,0,0,1,.915.922,2.509,2.509,0,0,1,1.161.672,3.183,3.183,0,0,1,1.427.455" transform="translate(0.069 7.067)" fill="#f15a22"/>
    <path id="Path_153" data-name="Path 153" d="M1.792,1.326A3.1,3.1,0,0,0,1.465.848,2.768,2.768,0,0,0,1.081.461,2.228,2.228,0,0,0,.149,0C.116.1.088.211.063.317A2.891,2.891,0,0,0,.017.642a3.648,3.648,0,0,0-.006.643A3.3,3.3,0,0,0,.146,1.9a2.834,2.834,0,0,0,.11.287,2.41,2.41,0,0,0,.151.271,2.269,2.269,0,0,0,.807.776,2.327,2.327,0,0,0,1,.281c0-.046.007-.093.011-.139s.009-.092.011-.138q.008-.138,0-.278t-.024-.279l-.01-.07L2.2,2.545q-.009-.069-.021-.138a3.091,3.091,0,0,0-.15-.55c-.036-.091-.066-.18-.106-.268s-.082-.176-.13-.263" transform="translate(3.792 7.354)" fill="#f15a22"/>
    <path id="Path_154" data-name="Path 154" d="M1.985.227A2.821,2.821,0,0,1,2.3.1,2.373,2.373,0,0,1,2.616.031,2.217,2.217,0,0,1,3.21.012a2.03,2.03,0,0,1,1.007.4Q4.127.558,4.025.7q-.051.071-.1.14c-.036.046-.073.091-.107.137a4.458,4.458,0,0,1-.462.516c-.042.04-.085.079-.128.118s-.083.078-.126.116q-.128.113-.266.216t-.284.193q-.073.046-.148.088c-.049.029-.1.057-.147.084a2.984,2.984,0,0,1-1.185.366,2.177,2.177,0,0,1-.556-.026A1.857,1.857,0,0,1,0,2.475,3.354,3.354,0,0,1,.163,2.1q.09-.181.191-.353c.068-.114.137-.227.215-.333s.162-.207.247-.3S.99.926,1.081.839A2.747,2.747,0,0,1,1.365.6a3.48,3.48,0,0,1,.621-.37" transform="translate(0.982 3.38)" fill="#f15a22"/>
    <path id="Path_155" data-name="Path 155" d="M1.817,1.7q-.047-.148-.106-.287c-.038-.093-.077-.181-.122-.267A2.8,2.8,0,0,0,1.28.67,2.335,2.335,0,0,0,.429,0Q.347.151.278.307.243.385.212.463a1.517,1.517,0,0,0-.056.16,3.942,3.942,0,0,0-.138.656c-.006.055-.012.109-.016.164s0,.111,0,.166q0,.165.021.326a2.965,2.965,0,0,0,.054.316q.018.077.039.153c.015.051.034.1.053.152a2.363,2.363,0,0,0,.663.958,2.286,2.286,0,0,0,.456.3,2.532,2.532,0,0,0,.505.191c.025-.092.058-.182.081-.274s.044-.186.059-.281.024-.191.034-.287.018-.191.02-.288,0-.195-.007-.293-.021-.2-.031-.3a3.258,3.258,0,0,0-.13-.589" transform="translate(5.063 3.961)" fill="#f15a22"/>
    <path id="Path_156" data-name="Path 156" d="M2.5.064A2.223,2.223,0,0,1,4.727.723a4.932,4.932,0,0,1-.527.5q-.07.057-.143.111c-.047.038-.093.075-.141.111q-.143.108-.295.2t-.311.182c-.105.057-.207.114-.315.164a4.111,4.111,0,0,1-.667.25,3.125,3.125,0,0,1-1.28.128A2.07,2.07,0,0,1,0,1.944a6.054,6.054,0,0,1,.513-.666c.047-.051.092-.1.142-.151s.1-.095.151-.141Q.959.849,1.12.727T1.445.5C1.558.431,1.674.37,1.79.315A3.566,3.566,0,0,1,2.5.064" transform="translate(2.721 0)" fill="#f15a22"/>
    <path id="Path_157" data-name="Path 157" d="M1.88,2.022A2.778,2.778,0,0,0,.831,0,4.323,4.323,0,0,0,.425.579Q.381.655.34.732C.314.784.291.838.268.891Q.2,1.053.146,1.216t-.09.328a2.722,2.722,0,0,0-.046.336,2.966,2.966,0,0,0,.019.662A2.444,2.444,0,0,0,.507,3.656a2.492,2.492,0,0,0,.872.7,3.031,3.031,0,0,0,.255-.532c.018-.046.032-.095.049-.141s.033-.093.048-.14q.045-.142.077-.289t.051-.3c.016-.1.028-.2.035-.3a3.463,3.463,0,0,0-.014-.629" transform="translate(6.876 0.959)" fill="#f15a22"/>
  </g>
</svg>
