<svg xmlns="http://www.w3.org/2000/svg" width="10.224" height="29.051" viewBox="0 0 10.224 29.051">
  <g id="Group_393" data-name="Group 393" transform="matrix(0.996, -0.087, 0.087, 0.996, -1774.731, 3.882)">
    <path id="Path_141" data-name="Path 141" d="M227.7,6.4q-.116.093-.222.192c-.069.067-.134.138-.2.21s-.119.145-.172.219a2.646,2.646,0,0,0-.144.23,2.456,2.456,0,0,0-.315.95,3.54,3.54,0,0,0,1.864-.778c.072-.057.141-.118.207-.179s.131-.122.192-.186.118-.13.173-.2.109-.133.158-.2a3.235,3.235,0,0,0,.447-.876,2.463,2.463,0,0,0-1,.094q-.128.038-.257.089t-.252.119q-.125.066-.248.144c-.081.053-.159.112-.237.173" transform="translate(1548.601 145.916)" fill="#f15a22"/>
    <path id="Path_142" data-name="Path 142" d="M178.993,1.984a1.686,1.686,0,0,0,.694,1.575,3.761,3.761,0,0,0,.865-1.9,2.237,2.237,0,0,0-.066-.945,1.551,1.551,0,0,0-.439-.71q-.056.05-.111.1t-.1.109q-.1.11-.195.226a3.135,3.135,0,0,0-.322.49c-.046.085-.088.17-.125.257s-.067.176-.095.265-.05.178-.067.266c-.009.044-.017.089-.023.133s-.01.09-.013.135" transform="translate(1594.528 151.473)" fill="#f15a22"/>
    <path id="Path_143" data-name="Path 143" d="M205.213,80.4a2.365,2.365,0,0,1-.466-.02,2.2,2.2,0,0,1-.22-.043,2.032,2.032,0,0,1-.208-.063,1.759,1.759,0,0,1-.7-.455,2.436,2.436,0,0,1,.186-.187q.1-.087.2-.166c.07-.052.141-.1.214-.147s.151-.085.228-.122a2.289,2.289,0,0,1,.969-.233,1.865,1.865,0,0,1,.88.211,1.816,1.816,0,0,1,.624.553,2.95,2.95,0,0,1-1.714.673" transform="translate(1570.789 75.385)" fill="#f15a22"/>
    <path id="Path_144" data-name="Path 144" d="M108.682,82.337a1.762,1.762,0,0,0,1.05,1.47,3.984,3.984,0,0,0,.231-.512,3.911,3.911,0,0,0,.164-.534c.02-.091.04-.181.055-.272s.027-.182.034-.274a3.613,3.613,0,0,0,0-.549,2.793,2.793,0,0,0-.089-.516,2.091,2.091,0,0,0-.175-.445,1.634,1.634,0,0,0-.6-.641,3.237,3.237,0,0,0-.673,2.271" transform="translate(1662.293 74.322)" fill="#f15a22"/>
    <path id="Path_145" data-name="Path 145" d="M146.37,152.29a2.107,2.107,0,0,1-1.76-.258,3.262,3.262,0,0,1,.324-.446,2.965,2.965,0,0,1,.4-.371,2.083,2.083,0,0,1,.221-.151q.114-.069.233-.125a2.131,2.131,0,0,1,.494-.165,1.964,1.964,0,0,1,.492-.042,1.872,1.872,0,0,1,1.21.515,3.109,3.109,0,0,1-1.614,1.043" transform="translate(1627.653 6.231)" fill="#f15a22"/>
    <path id="Path_146" data-name="Path 146" d="M54.635,177.623a2.232,2.232,0,0,0,.241.5,1.907,1.907,0,0,0,.329.379,1.737,1.737,0,0,0,.824.4,4.259,4.259,0,0,0,.04-2.3,2.492,2.492,0,0,0-.472-.932,1.694,1.694,0,0,0-.748-.532,3.818,3.818,0,0,0-.347,1.267,3.072,3.072,0,0,0,0,.629,2.75,2.75,0,0,0,.047.3,2.8,2.8,0,0,0,.082.289" transform="translate(1714.496 -17.29)" fill="#f15a22"/>
    <path id="Path_147" data-name="Path 147" d="M106.2,232.781a2.75,2.75,0,0,1-.479.181,2.313,2.313,0,0,1-.475.082,1.955,1.955,0,0,1-.9-.149,2.934,2.934,0,0,1,.236-.527,2.763,2.763,0,0,1,.327-.465q.093-.106.194-.2a2.028,2.028,0,0,1,.212-.178,2.5,2.5,0,0,1,.47-.274,1.967,1.967,0,0,1,1.847.132,3.355,3.355,0,0,1-.595.8,3.422,3.422,0,0,1-.388.329c-.069.05-.143.1-.217.141s-.149.087-.228.125" transform="translate(1666.461 -71.195)" fill="#f15a22"/>
    <path id="Path_148" data-name="Path 148" d="M18.477,284.26a2.143,2.143,0,0,0,.771.778,1.818,1.818,0,0,0,.931.234c0-.1.011-.205.012-.308s0-.205-.008-.308-.013-.2-.025-.305-.027-.2-.046-.3a4.043,4.043,0,0,0-.383-1.144,2.7,2.7,0,0,0-.679-.856,1.779,1.779,0,0,0-.88-.389c-.026.115-.048.23-.066.346a3.331,3.331,0,0,0-.039.347c-.006.116-.009.231-.006.346a3.053,3.053,0,0,0,.022.339,3.6,3.6,0,0,0,.137.645,3.055,3.055,0,0,0,.259.577" transform="translate(1749.6 -119.934)" fill="#f15a22"/>
    <path id="Path_149" data-name="Path 149" d="M86.395,318.368a2.649,2.649,0,0,1-.919.473,2.04,2.04,0,0,1-.956.043,2.464,2.464,0,0,1,.05-.3q.033-.148.077-.291a2.434,2.434,0,0,1,.105-.28q.06-.137.13-.266a2.54,2.54,0,0,1,.76-.854,2.063,2.063,0,0,1,.967-.37,2.1,2.1,0,0,1,.947.119,3.388,3.388,0,0,1-1.161,1.724" transform="translate(1685.557 -153.519)" fill="#f15a22"/>
    <path id="Path_150" data-name="Path 150" d="M.864,397.76a2.5,2.5,0,0,0,.459.4,1.91,1.91,0,0,0,1.493.278c-.037-.212-.07-.423-.125-.63q-.04-.155-.093-.307c-.034-.1-.076-.2-.112-.3a3.844,3.844,0,0,0-.274-.57q-.08-.137-.172-.267c-.06-.087-.12-.171-.186-.252a3.068,3.068,0,0,0-.42-.428,2.4,2.4,0,0,0-.453-.306A1.847,1.847,0,0,0,0,395.16a4.126,4.126,0,0,0,.037.733q.025.18.064.356l.02.087.024.086q.025.086.054.17a3.948,3.948,0,0,0,.275.633q.04.074.084.144c.029.047.063.093.1.138a3.07,3.07,0,0,0,.209.255" transform="translate(1767 -229.299)" fill="#f15a22"/>
    <path id="Path_151" data-name="Path 151" d="M87.289,405.334a2.921,2.921,0,0,1-.4.387,2.805,2.805,0,0,1-.442.289,2.124,2.124,0,0,1-.966.247,2.78,2.78,0,0,1,.006-.63q.017-.156.046-.308a2.1,2.1,0,0,1,.075-.3,3.18,3.18,0,0,1,.245-.555,2.746,2.746,0,0,1,.159-.249,2.4,2.4,0,0,1,.192-.227,2.306,2.306,0,0,1,.433-.358,2.148,2.148,0,0,1,.478-.221,2.2,2.2,0,0,1,.994-.076,3.934,3.934,0,0,1-.085.532q-.031.132-.074.261l-.022.065-.021.064q-.022.064-.046.127a2.993,2.993,0,0,1-.247.493q-.037.06-.077.118c-.026.039-.051.077-.078.115q-.08.114-.173.223" transform="translate(1684.645 -237.158)" fill="#f15a22"/>
    <path id="Path_152" data-name="Path 152" d="M3.334,512.084a2.574,2.574,0,0,0,.551.309,2.086,2.086,0,0,0,.556.135,1.967,1.967,0,0,0,1.029-.174q-.058-.158-.127-.31c-.046-.1-.087-.2-.137-.3a4.469,4.469,0,0,0-.338-.575,4.024,4.024,0,0,0-.4-.525q-.11-.123-.231-.237c-.079-.076-.157-.15-.241-.219a2.875,2.875,0,0,0-1.048-.572,1.9,1.9,0,0,0-1.042-.019c.01.064.02.128.033.191s.03.125.047.188q.05.186.113.367t.137.353c.012.029.025.057.038.086l.043.084q.044.083.09.163a4.13,4.13,0,0,0,.414.592,2.509,2.509,0,0,0,.246.251,3.183,3.183,0,0,0,.266.217" transform="translate(1765.162 -339.509)" fill="#f15a22"/>
    <path id="Path_153" data-name="Path 153" d="M105.976,489.9a3.1,3.1,0,0,1-.327.479,2.769,2.769,0,0,1-.384.387,2.229,2.229,0,0,1-.932.46c-.033-.1-.061-.211-.085-.317a2.891,2.891,0,0,1-.046-.324,3.648,3.648,0,0,1-.006-.643,3.3,3.3,0,0,1,.135-.617,2.836,2.836,0,0,1,.11-.287,2.41,2.41,0,0,1,.151-.271,2.269,2.269,0,0,1,.807-.776,2.327,2.327,0,0,1,1-.281c0,.046.007.093.011.139s.009.092.011.138q.008.138,0,.278t-.024.279l-.01.07-.008.069q-.009.069-.021.138a3.092,3.092,0,0,1-.15.55c-.036.091-.066.18-.106.268s-.082.176-.13.263" transform="translate(1666.608 -318.479)" fill="#f15a22"/>
    <path id="Path_154" data-name="Path 154" d="M28.986,622.337a2.821,2.821,0,0,0,.316.123,2.373,2.373,0,0,0,.315.073,2.217,2.217,0,0,0,.594.019,2.03,2.03,0,0,0,1.007-.4q-.091-.149-.193-.291-.051-.071-.1-.14c-.036-.046-.073-.091-.107-.137a4.458,4.458,0,0,0-.462-.516c-.042-.04-.085-.079-.128-.118s-.083-.078-.126-.116q-.128-.113-.266-.216t-.284-.193q-.073-.046-.148-.088c-.049-.029-.1-.057-.147-.084a2.985,2.985,0,0,0-1.185-.366,2.177,2.177,0,0,0-.556.026,1.858,1.858,0,0,0-.512.172,3.354,3.354,0,0,0,.163.37q.09.181.191.353c.068.114.137.227.215.333s.162.207.247.3.174.189.265.276a2.747,2.747,0,0,0,.284.243,3.48,3.48,0,0,0,.621.37" transform="translate(1740.981 -445.848)" fill="#f15a22"/>
    <path id="Path_155" data-name="Path 155" d="M140.914,569.75q-.047.148-.106.287c-.038.093-.077.181-.122.267a2.8,2.8,0,0,1-.309.477,2.335,2.335,0,0,1-.851.67q-.082-.151-.151-.307-.035-.078-.066-.157a1.517,1.517,0,0,1-.056-.16,3.942,3.942,0,0,1-.138-.656c-.006-.055-.012-.109-.016-.164s0-.111,0-.166q0-.165.021-.326a2.965,2.965,0,0,1,.054-.316q.018-.077.039-.153c.015-.051.034-.1.053-.152a2.363,2.363,0,0,1,.663-.958,2.286,2.286,0,0,1,.456-.3,2.533,2.533,0,0,1,.505-.191c.025.092.058.182.081.274s.044.186.059.281.024.191.034.287.018.191.02.288,0,.195-.007.293-.021.2-.031.3a3.258,3.258,0,0,1-.13.589" transform="translate(1632.966 -395.315)" fill="#f15a22"/>
    <path id="Path_156" data-name="Path 156" d="M77.262,723.064a2.224,2.224,0,0,0,2.231-.659,4.934,4.934,0,0,0-.527-.5q-.07-.057-.143-.111c-.047-.038-.093-.075-.141-.111q-.143-.108-.295-.2t-.311-.182c-.105-.057-.208-.114-.315-.164a4.111,4.111,0,0,0-.667-.25,3.125,3.125,0,0,0-1.28-.128,2.069,2.069,0,0,0-1.048.425,6.054,6.054,0,0,0,.513.666c.047.051.092.1.142.151s.1.095.151.141q.153.137.313.26t.325.228c.114.068.229.129.346.184a3.566,3.566,0,0,0,.705.251" transform="translate(1694.955 -543.032)" fill="#f15a22"/>
    <path id="Path_157" data-name="Path 157" d="M190.8,642.676a2.778,2.778,0,0,1-1.049,2.022,4.323,4.323,0,0,1-.406-.579q-.044-.076-.085-.153c-.026-.053-.049-.106-.072-.16q-.068-.161-.122-.325t-.09-.328a2.722,2.722,0,0,1-.046-.336,2.966,2.966,0,0,1,.019-.662,2.444,2.444,0,0,1,.478-1.114,2.492,2.492,0,0,1,.872-.7,3.031,3.031,0,0,1,.255.532c.018.046.032.095.049.141s.033.093.048.14q.045.142.077.289t.051.3c.016.1.028.2.035.3a3.463,3.463,0,0,1-.014.629" transform="translate(1584.958 -465.562)" fill="#f15a22"/>
  </g>
</svg>
